<mxfile host="app.diagrams.net" agent="Mozilla/5.0 (X11; Ubuntu; Linux x86_64; rv:133.0) Gecko/20100101 Firefox/133.0" version="26.1.1" pages="2">
  <diagram name="no DUT" id="E1THIllQ47njp4CXYvg_">
    <mxGraphModel dx="3287" dy="1843" grid="1" gridSize="10" guides="1" tooltips="1" connect="1" arrows="1" fold="1" page="1" pageScale="1" pageWidth="827" pageHeight="1169" math="0" shadow="0">
      <root>
        <mxCell id="0" />
        <mxCell id="1" parent="0" />
        <mxCell id="yTOJs4qH4SKKXYz4oZ4m-1" value="" style="rounded=0;whiteSpace=wrap;html=1;" parent="1" vertex="1">
          <mxGeometry x="190" y="140" width="455.36" height="590" as="geometry" />
        </mxCell>
        <mxCell id="yTOJs4qH4SKKXYz4oZ4m-2" value="top_noDUT" style="text;html=1;align=center;verticalAlign=middle;resizable=0;points=[];autosize=1;strokeColor=none;fillColor=none;" parent="1" vertex="1">
          <mxGeometry x="190" y="140" width="80" height="30" as="geometry" />
        </mxCell>
        <mxCell id="yTOJs4qH4SKKXYz4oZ4m-3" value="" style="rounded=0;whiteSpace=wrap;html=1;" parent="1" vertex="1">
          <mxGeometry x="212.68" y="210" width="410" height="510" as="geometry" />
        </mxCell>
        <mxCell id="yTOJs4qH4SKKXYz4oZ4m-4" value="test" style="text;html=1;align=center;verticalAlign=middle;resizable=0;points=[];autosize=1;strokeColor=none;fillColor=none;" parent="1" vertex="1">
          <mxGeometry x="210" y="210" width="40" height="30" as="geometry" />
        </mxCell>
        <mxCell id="yTOJs4qH4SKKXYz4oZ4m-5" value="" style="rounded=0;whiteSpace=wrap;html=1;" parent="1" vertex="1">
          <mxGeometry x="241" y="250" width="350" height="460" as="geometry" />
        </mxCell>
        <mxCell id="yTOJs4qH4SKKXYz4oZ4m-6" value="tb" style="text;html=1;align=center;verticalAlign=middle;resizable=0;points=[];autosize=1;strokeColor=none;fillColor=none;" parent="1" vertex="1">
          <mxGeometry x="241" y="250" width="30" height="30" as="geometry" />
        </mxCell>
        <mxCell id="yTOJs4qH4SKKXYz4oZ4m-7" value="" style="rounded=0;whiteSpace=wrap;html=1;" parent="1" vertex="1">
          <mxGeometry x="480" y="270" width="87.32" height="40" as="geometry" />
        </mxCell>
        <mxCell id="yTOJs4qH4SKKXYz4oZ4m-8" value="scb" style="text;html=1;align=center;verticalAlign=middle;resizable=0;points=[];autosize=1;strokeColor=none;fillColor=none;" parent="1" vertex="1">
          <mxGeometry x="480" y="270" width="40" height="30" as="geometry" />
        </mxCell>
        <mxCell id="yTOJs4qH4SKKXYz4oZ4m-12" value="" style="whiteSpace=wrap;html=1;" parent="1" vertex="1">
          <mxGeometry x="257.68" y="330" width="312.32" height="370" as="geometry" />
        </mxCell>
        <mxCell id="yTOJs4qH4SKKXYz4oZ4m-13" value="uart_uvc" style="text;html=1;align=center;verticalAlign=middle;resizable=0;points=[];autosize=1;strokeColor=none;fillColor=none;" parent="1" vertex="1">
          <mxGeometry x="286" y="330" width="70" height="30" as="geometry" />
        </mxCell>
        <mxCell id="yTOJs4qH4SKKXYz4oZ4m-14" value="" style="whiteSpace=wrap;html=1;aspect=fixed;" parent="1" vertex="1">
          <mxGeometry x="310" y="410" width="100" height="100" as="geometry" />
        </mxCell>
        <mxCell id="yTOJs4qH4SKKXYz4oZ4m-15" value="" style="whiteSpace=wrap;html=1;aspect=fixed;" parent="1" vertex="1">
          <mxGeometry x="425" y="410" width="100" height="100" as="geometry" />
        </mxCell>
        <mxCell id="yTOJs4qH4SKKXYz4oZ4m-16" value="tx_agent" style="text;html=1;align=center;verticalAlign=middle;resizable=0;points=[];autosize=1;strokeColor=none;fillColor=none;" parent="1" vertex="1">
          <mxGeometry x="417" y="400" width="70" height="30" as="geometry" />
        </mxCell>
        <mxCell id="yTOJs4qH4SKKXYz4oZ4m-17" value="rx_agent" style="text;html=1;align=center;verticalAlign=middle;resizable=0;points=[];autosize=1;strokeColor=none;fillColor=none;" parent="1" vertex="1">
          <mxGeometry x="306" y="400" width="70" height="30" as="geometry" />
        </mxCell>
        <mxCell id="yTOJs4qH4SKKXYz4oZ4m-18" value="" style="whiteSpace=wrap;html=1;aspect=fixed;" parent="1" vertex="1">
          <mxGeometry x="316" y="470" width="30" height="30" as="geometry" />
        </mxCell>
        <mxCell id="yTOJs4qH4SKKXYz4oZ4m-19" value="drv" style="text;html=1;align=center;verticalAlign=middle;resizable=0;points=[];autosize=1;strokeColor=none;fillColor=none;" parent="1" vertex="1">
          <mxGeometry x="310" y="467" width="40" height="30" as="geometry" />
        </mxCell>
        <mxCell id="yTOJs4qH4SKKXYz4oZ4m-20" value="" style="whiteSpace=wrap;html=1;aspect=fixed;" parent="1" vertex="1">
          <mxGeometry x="316" y="437" width="30" height="30" as="geometry" />
        </mxCell>
        <mxCell id="yTOJs4qH4SKKXYz4oZ4m-21" value="mon" style="whiteSpace=wrap;html=1;aspect=fixed;" parent="1" vertex="1">
          <mxGeometry x="370" y="470" width="30" height="30" as="geometry" />
        </mxCell>
        <mxCell id="yTOJs4qH4SKKXYz4oZ4m-22" value="drv" style="whiteSpace=wrap;html=1;aspect=fixed;" parent="1" vertex="1">
          <mxGeometry x="433" y="473" width="30" height="30" as="geometry" />
        </mxCell>
        <mxCell id="yTOJs4qH4SKKXYz4oZ4m-23" value="" style="whiteSpace=wrap;html=1;aspect=fixed;" parent="1" vertex="1">
          <mxGeometry x="433" y="440" width="30" height="30" as="geometry" />
        </mxCell>
        <mxCell id="yTOJs4qH4SKKXYz4oZ4m-24" value="mon" style="whiteSpace=wrap;html=1;aspect=fixed;" parent="1" vertex="1">
          <mxGeometry x="487" y="473" width="30" height="30" as="geometry" />
        </mxCell>
        <mxCell id="yTOJs4qH4SKKXYz4oZ4m-28" value="seqr" style="text;html=1;align=center;verticalAlign=middle;resizable=0;points=[];autosize=1;strokeColor=none;fillColor=none;" parent="1" vertex="1">
          <mxGeometry x="306" y="437" width="50" height="30" as="geometry" />
        </mxCell>
        <mxCell id="yTOJs4qH4SKKXYz4oZ4m-29" value="seqr" style="text;html=1;align=center;verticalAlign=middle;resizable=0;points=[];autosize=1;strokeColor=none;fillColor=none;" parent="1" vertex="1">
          <mxGeometry x="423" y="437" width="50" height="30" as="geometry" />
        </mxCell>
        <mxCell id="yTOJs4qH4SKKXYz4oZ4m-30" value="" style="rounded=0;whiteSpace=wrap;html=1;" parent="1" vertex="1">
          <mxGeometry x="310" y="550" width="200" height="140" as="geometry" />
        </mxCell>
        <mxCell id="yTOJs4qH4SKKXYz4oZ4m-31" value="" style="shape=flexArrow;endArrow=classic;startArrow=classic;html=1;rounded=0;entryX=0.321;entryY=0.986;entryDx=0;entryDy=0;startWidth=11.6;startSize=3.38;endWidth=6.8;endSize=3.38;entryPerimeter=0;" parent="1" target="yTOJs4qH4SKKXYz4oZ4m-14" edge="1">
          <mxGeometry width="100" height="100" relative="1" as="geometry">
            <mxPoint x="342" y="549" as="sourcePoint" />
            <mxPoint x="620" y="430" as="targetPoint" />
          </mxGeometry>
        </mxCell>
        <mxCell id="yTOJs4qH4SKKXYz4oZ4m-32" value="" style="shape=flexArrow;endArrow=classic;startArrow=classic;html=1;rounded=0;entryX=0.5;entryY=1;entryDx=0;entryDy=0;exitX=0.185;exitY=0.013;exitDx=0;exitDy=0;exitPerimeter=0;startWidth=11.6;startSize=3.38;endWidth=6.8;endSize=3.38;" parent="1" edge="1">
          <mxGeometry width="100" height="100" relative="1" as="geometry">
            <mxPoint x="468" y="550" as="sourcePoint" />
            <mxPoint x="468" y="510" as="targetPoint" />
          </mxGeometry>
        </mxCell>
        <mxCell id="yTOJs4qH4SKKXYz4oZ4m-64" value="&lt;font style=&quot;font-size: 8px;&quot;&gt;&lt;u&gt;active&lt;/u&gt;&lt;/font&gt;" style="text;html=1;align=center;verticalAlign=middle;whiteSpace=wrap;rounded=0;" parent="1" vertex="1">
          <mxGeometry x="350" y="430" width="60" height="30" as="geometry" />
        </mxCell>
        <mxCell id="yTOJs4qH4SKKXYz4oZ4m-65" value="&lt;font style=&quot;font-size: 8px;&quot;&gt;&lt;u&gt;active&lt;/u&gt;&lt;/font&gt;" style="text;html=1;align=center;verticalAlign=middle;whiteSpace=wrap;rounded=0;" parent="1" vertex="1">
          <mxGeometry x="470" y="430" width="60" height="30" as="geometry" />
        </mxCell>
        <mxCell id="yTOJs4qH4SKKXYz4oZ4m-95" value="tx" style="text;html=1;align=center;verticalAlign=middle;resizable=0;points=[];autosize=1;strokeColor=none;fillColor=none;" parent="1" vertex="1">
          <mxGeometry x="452.68" y="540" width="30" height="30" as="geometry" />
        </mxCell>
        <mxCell id="yTOJs4qH4SKKXYz4oZ4m-96" value="rx" style="text;html=1;align=center;verticalAlign=middle;resizable=0;points=[];autosize=1;strokeColor=none;fillColor=none;" parent="1" vertex="1">
          <mxGeometry x="347.68" y="540" width="30" height="30" as="geometry" />
        </mxCell>
        <mxCell id="yTOJs4qH4SKKXYz4oZ4m-97" value="vif " style="text;html=1;align=center;verticalAlign=middle;resizable=0;points=[];autosize=1;strokeColor=none;fillColor=none;fontSize=15;" parent="1" vertex="1">
          <mxGeometry x="385" y="540" width="40" height="30" as="geometry" />
        </mxCell>
        <mxCell id="yTOJs4qH4SKKXYz4oZ4m-103" style="edgeStyle=orthogonalEdgeStyle;rounded=0;orthogonalLoop=1;jettySize=auto;html=1;entryX=0.017;entryY=0.133;entryDx=0;entryDy=0;exitX=0.386;exitY=1.026;exitDx=0;exitDy=0;exitPerimeter=0;labelBackgroundColor=light-dark(#FFFFFF,#3333FF);fillColor=#a20025;strokeColor=#CC0000;entryPerimeter=0;" parent="1" target="KZI7-V0_eQikn1hV0eFN-4" edge="1">
          <mxGeometry relative="1" as="geometry">
            <mxPoint x="443.43999999999994" y="503.7800000000001" as="sourcePoint" />
            <Array as="points">
              <mxPoint x="443" y="520" />
              <mxPoint x="420" y="520" />
              <mxPoint x="420" y="580" />
            </Array>
            <mxPoint x="441.18000000000006" y="580" as="targetPoint" />
          </mxGeometry>
        </mxCell>
        <mxCell id="yTOJs4qH4SKKXYz4oZ4m-106" style="edgeStyle=orthogonalEdgeStyle;rounded=0;orthogonalLoop=1;jettySize=auto;html=1;entryX=-0.025;entryY=0.484;entryDx=0;entryDy=0;entryPerimeter=0;labelBackgroundColor=light-dark(#FFFFFF,#3333FF);fontColor=#0000FF;fillColor=#0050ef;strokeColor=#001DBC;exitX=1;exitY=0.5;exitDx=0;exitDy=0;" parent="1" source="yTOJs4qH4SKKXYz4oZ4m-21" target="yTOJs4qH4SKKXYz4oZ4m-8" edge="1">
          <mxGeometry relative="1" as="geometry">
            <Array as="points">
              <mxPoint x="420" y="485" />
              <mxPoint x="420" y="285" />
            </Array>
            <mxPoint x="410" y="470" as="sourcePoint" />
          </mxGeometry>
        </mxCell>
        <mxCell id="yTOJs4qH4SKKXYz4oZ4m-108" style="edgeStyle=orthogonalEdgeStyle;rounded=0;orthogonalLoop=1;jettySize=auto;html=1;exitX=1;exitY=0.5;exitDx=0;exitDy=0;labelBackgroundColor=light-dark(#FFFFFF,#3333FF);fontColor=#0000FF;fillColor=#0050ef;strokeColor=#001DBC;" parent="1" source="yTOJs4qH4SKKXYz4oZ4m-24" edge="1">
          <mxGeometry relative="1" as="geometry">
            <mxPoint x="430" y="489" as="sourcePoint" />
            <Array as="points">
              <mxPoint x="517" y="490" />
              <mxPoint x="540" y="490" />
              <mxPoint x="540" y="309" />
            </Array>
            <mxPoint x="540" y="310" as="targetPoint" />
          </mxGeometry>
        </mxCell>
        <mxCell id="KZI7-V0_eQikn1hV0eFN-4" value="&lt;font&gt;task tx_2_rx&lt;/font&gt;" style="swimlane;fontStyle=0;childLayout=stackLayout;horizontal=1;startSize=30;horizontalStack=0;resizeParent=1;resizeParentMax=0;resizeLast=0;collapsible=1;marginBottom=0;whiteSpace=wrap;html=1;fontSize=9;" vertex="1" parent="1">
          <mxGeometry x="435.68" y="564" width="70" height="120" as="geometry">
            <mxRectangle x="435.68" y="564" width="80" height="30" as="alternateBounds" />
          </mxGeometry>
        </mxCell>
        <mxCell id="KZI7-V0_eQikn1hV0eFN-5" value="&lt;font&gt;collect packet serial -&amp;gt; one packet with&amp;nbsp; start,end and parity&lt;br&gt;&lt;/font&gt;" style="text;strokeColor=none;fillColor=none;align=left;verticalAlign=middle;spacingLeft=4;spacingRight=4;overflow=hidden;points=[[0,0.5],[1,0.5]];portConstraint=eastwest;rotatable=0;whiteSpace=wrap;html=1;fontSize=6;" vertex="1" parent="KZI7-V0_eQikn1hV0eFN-4">
          <mxGeometry y="30" width="70" height="30" as="geometry" />
        </mxCell>
        <mxCell id="KZI7-V0_eQikn1hV0eFN-8" value="with each bit a delay implemented (1/item.budrate)&amp;nbsp; / 1Ns" style="text;strokeColor=none;fillColor=none;align=left;verticalAlign=middle;spacingLeft=4;spacingRight=4;overflow=hidden;points=[[0,0.5],[1,0.5]];portConstraint=eastwest;rotatable=0;whiteSpace=wrap;html=1;fontSize=6;" vertex="1" parent="KZI7-V0_eQikn1hV0eFN-4">
          <mxGeometry y="60" width="70" height="40" as="geometry" />
        </mxCell>
        <mxCell id="KZI7-V0_eQikn1hV0eFN-9" value="assign rx = tx" style="text;strokeColor=none;fillColor=none;align=left;verticalAlign=middle;spacingLeft=4;spacingRight=4;overflow=hidden;points=[[0,0.5],[1,0.5]];portConstraint=eastwest;rotatable=0;whiteSpace=wrap;html=1;fontSize=6;" vertex="1" parent="KZI7-V0_eQikn1hV0eFN-4">
          <mxGeometry y="100" width="70" height="20" as="geometry" />
        </mxCell>
        <mxCell id="KZI7-V0_eQikn1hV0eFN-10" value="&lt;font&gt;task rx_2_tx&lt;/font&gt;" style="swimlane;fontStyle=0;childLayout=stackLayout;horizontal=1;startSize=30;horizontalStack=0;resizeParent=1;resizeParentMax=0;resizeLast=0;collapsible=1;marginBottom=0;whiteSpace=wrap;html=1;fontSize=8;" vertex="1" parent="1">
          <mxGeometry x="327.68" y="564" width="70" height="120" as="geometry">
            <mxRectangle x="690" y="383" width="80" height="30" as="alternateBounds" />
          </mxGeometry>
        </mxCell>
        <mxCell id="KZI7-V0_eQikn1hV0eFN-11" value="&lt;font&gt;collect packet serial -&amp;gt; one packet with&amp;nbsp; start,end and parity&lt;br&gt;&lt;/font&gt;&lt;font&gt;&lt;/font&gt;" style="text;strokeColor=none;fillColor=none;align=left;verticalAlign=middle;spacingLeft=4;spacingRight=4;overflow=hidden;points=[[0,0.5],[1,0.5]];portConstraint=eastwest;rotatable=0;whiteSpace=wrap;html=1;fontSize=6;" vertex="1" parent="KZI7-V0_eQikn1hV0eFN-10">
          <mxGeometry y="30" width="70" height="30" as="geometry" />
        </mxCell>
        <mxCell id="KZI7-V0_eQikn1hV0eFN-13" value="with each bit a delay implemented (1/item.budrate)&amp;nbsp; / 1Ns" style="text;strokeColor=none;fillColor=none;align=left;verticalAlign=middle;spacingLeft=4;spacingRight=4;overflow=hidden;points=[[0,0.5],[1,0.5]];portConstraint=eastwest;rotatable=0;whiteSpace=wrap;html=1;fontSize=6;" vertex="1" parent="KZI7-V0_eQikn1hV0eFN-10">
          <mxGeometry y="60" width="70" height="40" as="geometry" />
        </mxCell>
        <mxCell id="KZI7-V0_eQikn1hV0eFN-12" value="assign tx = rx" style="text;strokeColor=none;fillColor=none;align=left;verticalAlign=middle;spacingLeft=4;spacingRight=4;overflow=hidden;points=[[0,0.5],[1,0.5]];portConstraint=eastwest;rotatable=0;whiteSpace=wrap;html=1;fontSize=6;" vertex="1" parent="KZI7-V0_eQikn1hV0eFN-10">
          <mxGeometry y="100" width="70" height="20" as="geometry" />
        </mxCell>
        <mxCell id="yTOJs4qH4SKKXYz4oZ4m-105" style="edgeStyle=orthogonalEdgeStyle;rounded=0;orthogonalLoop=1;jettySize=auto;html=1;exitX=0.25;exitY=1;exitDx=0;exitDy=0;labelBackgroundColor=light-dark(#FFFFFF,#3333FF);fillColor=#a20025;strokeColor=#CC0000;entryX=0.019;entryY=0.167;entryDx=0;entryDy=0;entryPerimeter=0;" parent="1" source="yTOJs4qH4SKKXYz4oZ4m-18" target="KZI7-V0_eQikn1hV0eFN-10" edge="1">
          <mxGeometry relative="1" as="geometry">
            <Array as="points">
              <mxPoint x="320" y="500" />
              <mxPoint x="320" y="520" />
              <mxPoint x="300" y="520" />
              <mxPoint x="300" y="584" />
            </Array>
            <mxPoint x="310" y="580" as="targetPoint" />
          </mxGeometry>
        </mxCell>
      </root>
    </mxGraphModel>
  </diagram>
  <diagram name="with DUT" id="d7AFgd-hHPLvPaEiXM-F">
    <mxGraphModel dx="2465" dy="214" grid="1" gridSize="10" guides="1" tooltips="1" connect="1" arrows="1" fold="1" page="1" pageScale="1" pageWidth="827" pageHeight="1169" math="0" shadow="0">
      <root>
        <mxCell id="uYB8dWy_XtuO8vd2l1Ao-0" />
        <mxCell id="uYB8dWy_XtuO8vd2l1Ao-1" parent="uYB8dWy_XtuO8vd2l1Ao-0" />
        <mxCell id="uYB8dWy_XtuO8vd2l1Ao-30" value="" style="rounded=0;whiteSpace=wrap;html=1;" parent="uYB8dWy_XtuO8vd2l1Ao-1" vertex="1">
          <mxGeometry x="160" y="1190" width="455.36" height="1119" as="geometry" />
        </mxCell>
        <mxCell id="uYB8dWy_XtuO8vd2l1Ao-31" value="top_DUT" style="text;html=1;align=center;verticalAlign=middle;resizable=0;points=[];autosize=1;strokeColor=none;fillColor=none;" parent="uYB8dWy_XtuO8vd2l1Ao-1" vertex="1">
          <mxGeometry x="180" y="1190" width="70" height="30" as="geometry" />
        </mxCell>
        <mxCell id="uYB8dWy_XtuO8vd2l1Ao-32" value="" style="rounded=0;whiteSpace=wrap;html=1;" parent="uYB8dWy_XtuO8vd2l1Ao-1" vertex="1">
          <mxGeometry x="182.68" y="1239" width="410" height="1030" as="geometry" />
        </mxCell>
        <mxCell id="uYB8dWy_XtuO8vd2l1Ao-33" value="test" style="text;html=1;align=center;verticalAlign=middle;resizable=0;points=[];autosize=1;strokeColor=none;fillColor=none;" parent="uYB8dWy_XtuO8vd2l1Ao-1" vertex="1">
          <mxGeometry x="180" y="1239" width="40" height="30" as="geometry" />
        </mxCell>
        <mxCell id="uYB8dWy_XtuO8vd2l1Ao-34" value="" style="rounded=0;whiteSpace=wrap;html=1;" parent="uYB8dWy_XtuO8vd2l1Ao-1" vertex="1">
          <mxGeometry x="211" y="1279" width="350" height="970" as="geometry" />
        </mxCell>
        <mxCell id="uYB8dWy_XtuO8vd2l1Ao-35" value="tb" style="text;html=1;align=center;verticalAlign=middle;resizable=0;points=[];autosize=1;strokeColor=none;fillColor=none;" parent="uYB8dWy_XtuO8vd2l1Ao-1" vertex="1">
          <mxGeometry x="211" y="1279" width="30" height="30" as="geometry" />
        </mxCell>
        <mxCell id="uYB8dWy_XtuO8vd2l1Ao-36" value="" style="rounded=0;whiteSpace=wrap;html=1;" parent="uYB8dWy_XtuO8vd2l1Ao-1" vertex="1">
          <mxGeometry x="450" y="1299" width="87.32" height="40" as="geometry" />
        </mxCell>
        <mxCell id="uYB8dWy_XtuO8vd2l1Ao-37" value="scb" style="text;html=1;align=center;verticalAlign=middle;resizable=0;points=[];autosize=1;strokeColor=none;fillColor=none;" parent="uYB8dWy_XtuO8vd2l1Ao-1" vertex="1">
          <mxGeometry x="450" y="1299" width="40" height="30" as="geometry" />
        </mxCell>
        <mxCell id="uYB8dWy_XtuO8vd2l1Ao-38" value="" style="whiteSpace=wrap;html=1;aspect=fixed;" parent="uYB8dWy_XtuO8vd2l1Ao-1" vertex="1">
          <mxGeometry x="256" y="1359" width="260" height="260" as="geometry" />
        </mxCell>
        <mxCell id="uYB8dWy_XtuO8vd2l1Ao-39" value="uart_uvc" style="text;html=1;align=center;verticalAlign=middle;resizable=0;points=[];autosize=1;strokeColor=none;fillColor=none;" parent="uYB8dWy_XtuO8vd2l1Ao-1" vertex="1">
          <mxGeometry x="256" y="1359" width="70" height="30" as="geometry" />
        </mxCell>
        <mxCell id="uYB8dWy_XtuO8vd2l1Ao-40" value="" style="whiteSpace=wrap;html=1;aspect=fixed;" parent="uYB8dWy_XtuO8vd2l1Ao-1" vertex="1">
          <mxGeometry x="280" y="1439" width="100" height="100" as="geometry" />
        </mxCell>
        <mxCell id="uYB8dWy_XtuO8vd2l1Ao-41" value="" style="whiteSpace=wrap;html=1;aspect=fixed;" parent="uYB8dWy_XtuO8vd2l1Ao-1" vertex="1">
          <mxGeometry x="395" y="1439" width="100" height="100" as="geometry" />
        </mxCell>
        <mxCell id="uYB8dWy_XtuO8vd2l1Ao-42" value="tx_agent" style="text;html=1;align=center;verticalAlign=middle;resizable=0;points=[];autosize=1;strokeColor=none;fillColor=none;" parent="uYB8dWy_XtuO8vd2l1Ao-1" vertex="1">
          <mxGeometry x="387" y="1429" width="70" height="30" as="geometry" />
        </mxCell>
        <mxCell id="uYB8dWy_XtuO8vd2l1Ao-43" value="rx_agent" style="text;html=1;align=center;verticalAlign=middle;resizable=0;points=[];autosize=1;strokeColor=none;fillColor=none;" parent="uYB8dWy_XtuO8vd2l1Ao-1" vertex="1">
          <mxGeometry x="276" y="1429" width="70" height="30" as="geometry" />
        </mxCell>
        <mxCell id="uYB8dWy_XtuO8vd2l1Ao-44" value="" style="whiteSpace=wrap;html=1;aspect=fixed;" parent="uYB8dWy_XtuO8vd2l1Ao-1" vertex="1">
          <mxGeometry x="286" y="1499" width="30" height="30" as="geometry" />
        </mxCell>
        <mxCell id="uYB8dWy_XtuO8vd2l1Ao-45" value="drv" style="text;html=1;align=center;verticalAlign=middle;resizable=0;points=[];autosize=1;strokeColor=none;fillColor=none;" parent="uYB8dWy_XtuO8vd2l1Ao-1" vertex="1">
          <mxGeometry x="280" y="1496" width="40" height="30" as="geometry" />
        </mxCell>
        <mxCell id="uYB8dWy_XtuO8vd2l1Ao-46" value="" style="whiteSpace=wrap;html=1;aspect=fixed;" parent="uYB8dWy_XtuO8vd2l1Ao-1" vertex="1">
          <mxGeometry x="286" y="1466" width="30" height="30" as="geometry" />
        </mxCell>
        <mxCell id="uYB8dWy_XtuO8vd2l1Ao-47" value="" style="whiteSpace=wrap;html=1;aspect=fixed;" parent="uYB8dWy_XtuO8vd2l1Ao-1" vertex="1">
          <mxGeometry x="340" y="1499" width="30" height="30" as="geometry" />
        </mxCell>
        <mxCell id="uYB8dWy_XtuO8vd2l1Ao-48" value="" style="whiteSpace=wrap;html=1;aspect=fixed;" parent="uYB8dWy_XtuO8vd2l1Ao-1" vertex="1">
          <mxGeometry x="403" y="1502" width="30" height="30" as="geometry" />
        </mxCell>
        <mxCell id="uYB8dWy_XtuO8vd2l1Ao-49" value="" style="whiteSpace=wrap;html=1;aspect=fixed;" parent="uYB8dWy_XtuO8vd2l1Ao-1" vertex="1">
          <mxGeometry x="403" y="1469" width="30" height="30" as="geometry" />
        </mxCell>
        <mxCell id="uYB8dWy_XtuO8vd2l1Ao-50" value="" style="whiteSpace=wrap;html=1;aspect=fixed;" parent="uYB8dWy_XtuO8vd2l1Ao-1" vertex="1">
          <mxGeometry x="457" y="1502" width="30" height="30" as="geometry" />
        </mxCell>
        <mxCell id="uYB8dWy_XtuO8vd2l1Ao-51" value="drv" style="text;html=1;align=center;verticalAlign=middle;resizable=0;points=[];autosize=1;strokeColor=none;fillColor=none;" parent="uYB8dWy_XtuO8vd2l1Ao-1" vertex="1">
          <mxGeometry x="397" y="1502" width="40" height="30" as="geometry" />
        </mxCell>
        <mxCell id="uYB8dWy_XtuO8vd2l1Ao-52" value="mon" style="text;html=1;align=center;verticalAlign=middle;resizable=0;points=[];autosize=1;strokeColor=none;fillColor=none;" parent="uYB8dWy_XtuO8vd2l1Ao-1" vertex="1">
          <mxGeometry x="330" y="1496" width="50" height="30" as="geometry" />
        </mxCell>
        <mxCell id="uYB8dWy_XtuO8vd2l1Ao-53" value="mon" style="text;html=1;align=center;verticalAlign=middle;resizable=0;points=[];autosize=1;strokeColor=none;fillColor=none;" parent="uYB8dWy_XtuO8vd2l1Ao-1" vertex="1">
          <mxGeometry x="447" y="1502" width="50" height="30" as="geometry" />
        </mxCell>
        <mxCell id="uYB8dWy_XtuO8vd2l1Ao-54" value="seqr" style="text;html=1;align=center;verticalAlign=middle;resizable=0;points=[];autosize=1;strokeColor=none;fillColor=none;" parent="uYB8dWy_XtuO8vd2l1Ao-1" vertex="1">
          <mxGeometry x="276" y="1466" width="50" height="30" as="geometry" />
        </mxCell>
        <mxCell id="uYB8dWy_XtuO8vd2l1Ao-55" value="seqr" style="text;html=1;align=center;verticalAlign=middle;resizable=0;points=[];autosize=1;strokeColor=none;fillColor=none;" parent="uYB8dWy_XtuO8vd2l1Ao-1" vertex="1">
          <mxGeometry x="393" y="1466" width="50" height="30" as="geometry" />
        </mxCell>
        <mxCell id="uYB8dWy_XtuO8vd2l1Ao-57" value="" style="shape=flexArrow;endArrow=classic;startArrow=classic;html=1;rounded=0;entryX=0.5;entryY=1;entryDx=0;entryDy=0;startWidth=11.6;startSize=3.38;endWidth=6.8;endSize=3.38;exitX=0.146;exitY=0.132;exitDx=0;exitDy=0;exitPerimeter=0;" parent="uYB8dWy_XtuO8vd2l1Ao-1" source="uYB8dWy_XtuO8vd2l1Ao-56" target="uYB8dWy_XtuO8vd2l1Ao-40" edge="1">
          <mxGeometry width="100" height="100" relative="1" as="geometry">
            <mxPoint x="330" y="1629" as="sourcePoint" />
            <mxPoint x="590" y="1459" as="targetPoint" />
          </mxGeometry>
        </mxCell>
        <mxCell id="uYB8dWy_XtuO8vd2l1Ao-61" value="&lt;font&gt;&lt;u&gt;active&lt;/u&gt;&lt;/font&gt;" style="text;html=1;align=center;verticalAlign=middle;whiteSpace=wrap;rounded=0;fontSize=13;" parent="uYB8dWy_XtuO8vd2l1Ao-1" vertex="1">
          <mxGeometry x="320" y="1449" width="60" height="30" as="geometry" />
        </mxCell>
        <mxCell id="uYB8dWy_XtuO8vd2l1Ao-62" value="" style="shape=flexArrow;endArrow=classic;startArrow=classic;html=1;rounded=0;entryX=0.861;entryY=1;entryDx=0;entryDy=0;startWidth=11.6;startSize=3.38;endWidth=6.8;endSize=3.38;entryPerimeter=0;exitX=0.836;exitY=0.1;exitDx=0;exitDy=0;exitPerimeter=0;" parent="uYB8dWy_XtuO8vd2l1Ao-1" edge="1" source="uYB8dWy_XtuO8vd2l1Ao-56">
          <mxGeometry width="100" height="100" relative="1" as="geometry">
            <mxPoint x="440" y="1639" as="sourcePoint" />
            <mxPoint x="438.7600000000001" y="1539" as="targetPoint" />
          </mxGeometry>
        </mxCell>
        <mxCell id="uYB8dWy_XtuO8vd2l1Ao-63" value="DUT" style="whiteSpace=wrap;html=1;aspect=fixed;" parent="uYB8dWy_XtuO8vd2l1Ao-1" vertex="1">
          <mxGeometry x="300" y="1729" width="150" height="150" as="geometry" />
        </mxCell>
        <mxCell id="uYB8dWy_XtuO8vd2l1Ao-64" value="" style="shape=flexArrow;endArrow=classic;startArrow=classic;html=1;rounded=0;entryX=0.5;entryY=1;entryDx=0;entryDy=0;startWidth=11.6;startSize=3.38;endWidth=6.8;endSize=3.38;" parent="uYB8dWy_XtuO8vd2l1Ao-1" edge="1">
          <mxGeometry width="100" height="100" relative="1" as="geometry">
            <mxPoint x="380" y="1729" as="sourcePoint" />
            <mxPoint x="379" y="1679" as="targetPoint" />
          </mxGeometry>
        </mxCell>
        <mxCell id="NyF2nE3eEdsMwA8E2f8D-0" value="" style="whiteSpace=wrap;html=1;" vertex="1" parent="uYB8dWy_XtuO8vd2l1Ao-1">
          <mxGeometry x="245" y="2019" width="260" height="210" as="geometry" />
        </mxCell>
        <mxCell id="NyF2nE3eEdsMwA8E2f8D-1" value="wb_s_if" style="rounded=0;whiteSpace=wrap;html=1;" vertex="1" parent="uYB8dWy_XtuO8vd2l1Ao-1">
          <mxGeometry x="290" y="1939" width="160" height="30" as="geometry" />
        </mxCell>
        <mxCell id="NyF2nE3eEdsMwA8E2f8D-4" value="" style="shape=flexArrow;endArrow=classic;startArrow=classic;html=1;rounded=0;entryX=0.5;entryY=1;entryDx=0;entryDy=0;startWidth=11.6;startSize=3.38;endWidth=6.8;endSize=3.38;exitX=0.5;exitY=0;exitDx=0;exitDy=0;" edge="1" parent="uYB8dWy_XtuO8vd2l1Ao-1" source="NyF2nE3eEdsMwA8E2f8D-1">
          <mxGeometry width="100" height="100" relative="1" as="geometry">
            <mxPoint x="371" y="1929" as="sourcePoint" />
            <mxPoint x="370" y="1879" as="targetPoint" />
          </mxGeometry>
        </mxCell>
        <mxCell id="uYB8dWy_XtuO8vd2l1Ao-56" value="uart_if" style="rounded=0;whiteSpace=wrap;html=1;" parent="uYB8dWy_XtuO8vd2l1Ao-1" vertex="1">
          <mxGeometry x="307.68" y="1649" width="160" height="30" as="geometry" />
        </mxCell>
        <mxCell id="NyF2nE3eEdsMwA8E2f8D-5" value="&lt;div&gt;wb_s_uvc&lt;/div&gt;" style="text;html=1;align=center;verticalAlign=middle;resizable=0;points=[];autosize=1;strokeColor=none;fillColor=none;" vertex="1" parent="uYB8dWy_XtuO8vd2l1Ao-1">
          <mxGeometry x="241" y="2019" width="80" height="30" as="geometry" />
        </mxCell>
        <mxCell id="NyF2nE3eEdsMwA8E2f8D-6" value="" style="whiteSpace=wrap;html=1;aspect=fixed;" vertex="1" parent="uYB8dWy_XtuO8vd2l1Ao-1">
          <mxGeometry x="260" y="2109" width="100" height="100" as="geometry" />
        </mxCell>
        <mxCell id="NyF2nE3eEdsMwA8E2f8D-7" value="" style="whiteSpace=wrap;html=1;aspect=fixed;" vertex="1" parent="uYB8dWy_XtuO8vd2l1Ao-1">
          <mxGeometry x="375" y="2109" width="100" height="100" as="geometry" />
        </mxCell>
        <mxCell id="NyF2nE3eEdsMwA8E2f8D-8" value="tx_agent" style="text;html=1;align=center;verticalAlign=middle;resizable=0;points=[];autosize=1;strokeColor=none;fillColor=none;" vertex="1" parent="uYB8dWy_XtuO8vd2l1Ao-1">
          <mxGeometry x="367" y="2099" width="70" height="30" as="geometry" />
        </mxCell>
        <mxCell id="NyF2nE3eEdsMwA8E2f8D-9" value="rx_agent" style="text;html=1;align=center;verticalAlign=middle;resizable=0;points=[];autosize=1;strokeColor=none;fillColor=none;" vertex="1" parent="uYB8dWy_XtuO8vd2l1Ao-1">
          <mxGeometry x="256" y="2099" width="70" height="30" as="geometry" />
        </mxCell>
        <mxCell id="NyF2nE3eEdsMwA8E2f8D-16" value="seqr" style="whiteSpace=wrap;html=1;aspect=fixed;fillColor=none;" vertex="1" parent="uYB8dWy_XtuO8vd2l1Ao-1">
          <mxGeometry x="320" y="2172" width="30" height="30" as="geometry" />
        </mxCell>
        <mxCell id="NyF2nE3eEdsMwA8E2f8D-23" value="drv" style="whiteSpace=wrap;html=1;aspect=fixed;fillColor=none;" vertex="1" parent="uYB8dWy_XtuO8vd2l1Ao-1">
          <mxGeometry x="320" y="2129" width="30" height="30" as="geometry" />
        </mxCell>
        <mxCell id="NyF2nE3eEdsMwA8E2f8D-24" value="mon" style="whiteSpace=wrap;html=1;aspect=fixed;fillColor=none;" vertex="1" parent="uYB8dWy_XtuO8vd2l1Ao-1">
          <mxGeometry x="270" y="2129" width="30" height="30" as="geometry" />
        </mxCell>
        <mxCell id="NyF2nE3eEdsMwA8E2f8D-25" value="seqr" style="whiteSpace=wrap;html=1;aspect=fixed;fillColor=none;" vertex="1" parent="uYB8dWy_XtuO8vd2l1Ao-1">
          <mxGeometry x="437.68" y="2172" width="30" height="30" as="geometry" />
        </mxCell>
        <mxCell id="NyF2nE3eEdsMwA8E2f8D-26" value="drv" style="whiteSpace=wrap;html=1;aspect=fixed;fillColor=none;" vertex="1" parent="uYB8dWy_XtuO8vd2l1Ao-1">
          <mxGeometry x="437.68" y="2129" width="30" height="30" as="geometry" />
        </mxCell>
        <mxCell id="NyF2nE3eEdsMwA8E2f8D-27" value="mon" style="whiteSpace=wrap;html=1;aspect=fixed;fillColor=none;" vertex="1" parent="uYB8dWy_XtuO8vd2l1Ao-1">
          <mxGeometry x="387.68" y="2129" width="30" height="30" as="geometry" />
        </mxCell>
        <mxCell id="NyF2nE3eEdsMwA8E2f8D-28" value="" style="shape=flexArrow;endArrow=classic;startArrow=classic;html=1;rounded=0;entryX=0.84;entryY=0.91;entryDx=0;entryDy=0;startWidth=11.6;startSize=3.38;endWidth=6.8;endSize=3.38;exitX=0.5;exitY=0;exitDx=0;exitDy=0;entryPerimeter=0;" edge="1" parent="uYB8dWy_XtuO8vd2l1Ao-1" source="NyF2nE3eEdsMwA8E2f8D-7" target="NyF2nE3eEdsMwA8E2f8D-1">
          <mxGeometry width="100" height="100" relative="1" as="geometry">
            <mxPoint x="380" y="1949" as="sourcePoint" />
            <mxPoint x="380" y="1889" as="targetPoint" />
          </mxGeometry>
        </mxCell>
        <mxCell id="NyF2nE3eEdsMwA8E2f8D-29" value="" style="shape=flexArrow;endArrow=classic;startArrow=classic;html=1;rounded=0;entryX=0.84;entryY=0.91;entryDx=0;entryDy=0;startWidth=11.6;startSize=3.38;endWidth=6.8;endSize=3.38;exitX=0.5;exitY=0;exitDx=0;exitDy=0;entryPerimeter=0;" edge="1" parent="uYB8dWy_XtuO8vd2l1Ao-1">
          <mxGeometry width="100" height="100" relative="1" as="geometry">
            <mxPoint x="327" y="2109" as="sourcePoint" />
            <mxPoint x="326" y="1966" as="targetPoint" />
          </mxGeometry>
        </mxCell>
      </root>
    </mxGraphModel>
  </diagram>
</mxfile>
